<svg width="232" height="41" viewBox="0 0 232 41" fill="none" xmlns="http://www.w3.org/2000/svg">
<g id="LOGO">
<path id="Path 18" d="M2.49159 41C3.14865 40.998 3.77824 40.7349 4.24285 40.268C4.70746 39.8012 4.96934 39.1685 4.9713 38.5083V28.5384C5.099 28.6637 5.1777 28.8294 5.30243 28.9532C5.50053 29.2208 5.72163 29.4705 5.96319 29.6992C6.2058 29.9425 6.46858 30.1647 6.74868 30.3632C7.3323 30.7846 7.97279 31.1202 8.65078 31.3599C8.82366 31.4339 9.00383 31.4894 9.1883 31.5255C9.26636 31.5594 9.35146 31.5738 9.43627 31.5673C9.53429 31.5895 9.63097 31.6174 9.72581 31.6508C10.0962 31.6993 10.469 31.7272 10.8424 31.7344C11.0071 31.7551 11.1737 31.7551 11.3384 31.7344C11.5184 31.7438 11.699 31.7308 11.8759 31.6956C12.2396 31.6843 12.6006 31.6287 12.9509 31.53C13.0341 31.53 13.1157 31.4882 13.1989 31.4882C13.2969 31.4659 13.3936 31.438 13.4884 31.4046C13.5763 31.3956 13.661 31.3671 13.7364 31.3211C13.8242 31.3121 13.9089 31.2835 13.9844 31.2375C14.0675 31.1957 14.1492 31.1957 14.2324 31.154L14.4803 31.0257C14.5681 31.0167 14.6528 30.9881 14.7283 30.9421L14.853 30.8585L14.9807 30.8168L15.2287 30.6885C15.3029 30.6552 15.3723 30.612 15.4351 30.5601L15.6831 30.4378C15.7596 30.3931 15.8291 30.3373 15.8895 30.2722C16.1953 30.0882 16.4858 29.8797 16.7581 29.6485C17.2902 29.2036 17.7739 28.7035 18.2014 28.1564C18.6492 27.6276 19.0248 27.041 19.318 26.4122C19.6465 25.8195 19.9099 25.1927 20.1035 24.5427C20.2189 24.2295 20.3156 23.9096 20.393 23.5848C20.468 23.2562 20.5231 22.9234 20.5578 22.5881C20.6742 21.9302 20.7294 21.2629 20.7227 20.5947C20.7294 20.262 20.7156 19.9291 20.6811 19.5981L20.5534 18.6014C20.5221 18.2794 20.467 17.9602 20.3886 17.6465C20.3112 17.3089 20.2145 16.9761 20.099 16.6498C20.0073 16.3243 19.8967 16.0044 19.7679 15.6919C19.6331 15.3789 19.4814 15.0736 19.3135 14.7773C19.0208 14.1507 18.6463 13.5662 18.1999 13.039C17.9935 12.7898 17.7871 12.4989 17.5391 12.2497C17.2912 12.0005 17.0432 11.7932 16.7536 11.547C16.5057 11.3396 16.2161 11.1322 15.9266 10.9233C15.5955 10.7159 15.3059 10.5488 14.9763 10.3832C14.6532 10.2273 14.3221 10.0889 13.9844 9.96838C13.6463 9.83245 13.299 9.72126 12.945 9.63565C12.6021 9.56001 12.255 9.50471 11.9056 9.47003C11.5483 9.43616 11.1894 9.42221 10.8305 9.42825C10.4571 9.43541 10.0843 9.4633 9.71394 9.51181L9.13484 9.63714C8.97002 9.67892 8.80372 9.76247 8.6389 9.80276C7.94803 10.0412 7.29379 10.3757 6.69522 10.7965C6.64633 10.8729 6.57382 10.9311 6.48883 10.9621C6.42848 11.0272 6.35894 11.083 6.28243 11.1277L5.90973 11.5022C5.78922 11.6024 5.67836 11.7138 5.57861 11.8349L5.41379 12.0423C5.34901 12.103 5.29348 12.1728 5.24897 12.2497L4.95942 12.6242V11.9215C4.95746 11.2612 4.69558 10.6286 4.23097 10.1617C3.76636 9.69487 3.13677 9.43171 2.47971 9.42975C1.82265 9.43171 1.19307 9.69487 0.728454 10.1617C0.263842 10.6286 0.00195846 11.2612 0 11.9215V38.5068C0.00274088 39.1665 0.264969 39.7984 0.729497 40.2646C1.19403 40.7308 1.82317 40.9936 2.47971 40.9955L2.49159 41ZM5.4613 18.0225C5.6181 17.6226 5.8268 17.2453 6.08198 16.9004C6.29984 16.5481 6.56406 16.2269 6.86746 15.9455C7.40762 15.4009 8.05707 14.9782 8.77254 14.7056C8.85569 14.6639 8.93736 14.6639 9.02051 14.6221C9.06208 14.6221 9.10366 14.5803 9.14821 14.5803L9.27293 14.5385C9.35608 14.5385 9.39766 14.4967 9.47933 14.4967C9.50238 14.5004 9.52596 14.4985 9.54815 14.4912C9.57033 14.4839 9.5905 14.4715 9.60703 14.455H9.73175C9.8033 14.4656 9.8763 14.4509 9.93815 14.4132H10.1861C10.3388 14.4065 10.4916 14.4205 10.6405 14.455C10.9769 14.4662 11.3104 14.5218 11.6324 14.6206C11.9605 14.7334 12.2792 14.8721 12.5856 15.0354C12.9051 15.18 13.1986 15.3766 13.4543 15.6173C13.7455 15.8328 14.0093 16.0833 14.2398 16.3633C14.7443 16.9356 15.1372 17.5981 15.398 18.3164C15.5138 18.6851 15.6104 19.0596 15.6875 19.4384C15.7563 19.8223 15.7842 20.2124 15.7707 20.6022C15.7857 20.992 15.7578 21.3823 15.6875 21.766C15.6206 22.1471 15.5238 22.5223 15.398 22.888C15.1372 23.6063 14.7443 24.2688 14.2398 24.8411C13.9961 25.1239 13.7304 25.3868 13.4454 25.6274C13.3148 25.7341 13.1768 25.8313 13.0326 25.9184L12.9079 26.0019C12.9079 26.0437 12.8663 26.0437 12.8247 26.0855C12.7831 26.0855 12.7416 26.1273 12.7 26.1273L12.5753 26.2108C12.4361 26.3045 12.2826 26.3746 12.1209 26.4182C12.1047 26.4343 12.085 26.4465 12.0634 26.4537C12.0417 26.461 12.0187 26.4631 11.9962 26.46C11.9796 26.4765 11.9595 26.489 11.9373 26.4962C11.9151 26.5035 11.8915 26.5054 11.8685 26.5018C11.793 26.5478 11.7083 26.5763 11.6205 26.5853C11.4842 26.6702 11.3264 26.7137 11.1661 26.7107C11.0729 26.7422 10.9748 26.7563 10.8766 26.7524C10.835 26.7524 10.7934 26.7942 10.7519 26.7942H10.6331C10.4682 26.7942 10.3019 26.836 10.1787 26.836C10.0139 26.836 9.84757 26.7942 9.68275 26.7942C9.55803 26.7524 9.39321 26.7524 9.22839 26.7107C9.05742 26.6743 8.89105 26.6188 8.73244 26.545C8.40358 26.4033 8.0859 26.2367 7.78214 26.0467C7.46154 25.8358 7.15727 25.6009 6.87192 25.3439C6.5779 25.0387 6.31477 24.7048 6.08643 24.3472C5.83123 24.0024 5.62254 23.6251 5.46576 23.2252C5.15435 22.3873 4.98665 21.5024 4.96982 20.6082C4.97079 19.7241 5.14014 18.8485 5.46873 18.0284L5.4613 18.0225ZM26.5032 31.5643C27.1603 31.5623 27.7899 31.2992 28.2545 30.8323C28.7191 30.3654 28.981 29.7328 28.9829 29.0726V2.49172C28.981 1.83148 28.7191 1.19885 28.2545 0.731983C27.7899 0.26512 27.1603 0.00196794 26.5032 0C25.8462 0.00196794 25.2166 0.26512 24.752 0.731983C24.2873 1.19885 24.0255 1.83148 24.0235 2.49172V29.077C24.0255 29.7373 24.2873 30.3699 24.752 30.8368C25.2166 31.3036 25.8462 31.5668 26.5032 31.5688V31.5643ZM51.0182 22.051L50.9425 18.5685V18.0284C50.9425 17.821 50.9009 17.6136 50.9009 17.4465C50.8593 17.072 50.7762 16.7005 50.6945 16.2827C50.4844 15.5195 50.1932 14.7811 49.8259 14.0805C49.4093 13.3734 48.8943 12.7298 48.2965 12.1691C47.7275 11.6387 47.0872 11.1912 46.3944 10.8397C45.7283 10.4865 45.0196 10.2212 44.2859 10.0504C43.5839 9.85869 42.8626 9.74708 42.1358 9.71771C40.7392 9.63188 39.3387 9.80071 38.0019 10.2161C36.6367 10.5942 35.3491 11.2131 34.1992 12.0438C33.7616 12.364 33.468 12.8454 33.3828 13.3826C33.2977 13.9198 33.4278 14.4691 33.7449 14.91C33.8936 15.1377 34.0865 15.3329 34.312 15.4839C34.5376 15.6349 34.7911 15.7386 35.0575 15.7889C35.3237 15.8391 35.5973 15.8348 35.8619 15.7764C36.1264 15.7179 36.3766 15.6065 36.5973 15.4487C37.3553 14.9084 38.2138 14.5269 39.1215 14.3267C40.0089 14.0794 40.9335 13.995 41.8507 14.0775C42.7183 14.1278 43.5645 14.3677 44.3304 14.7802C44.6595 14.9637 44.9651 15.1866 45.2406 15.4442C45.4932 15.6995 45.7028 15.9943 45.8613 16.317C46.1522 16.8825 46.3078 17.5083 46.3157 18.1448H40.2367C39.2834 18.1448 32.2986 18.4358 32.2986 25.2067C32.2986 31.3136 38.9537 32.7251 43.2123 30.6899C44.2926 30.1556 45.2831 29.4548 46.1479 28.613V29.1531C46.1669 29.8123 46.4414 30.4379 46.913 30.8964C47.3846 31.355 48.0159 31.6102 48.6721 31.6076C49.3305 31.5958 49.9573 31.3221 50.4152 30.8467C50.8731 30.3712 51.1247 29.7326 51.1147 29.0711L51.0182 22.051ZM46.1479 24.1712C45.3305 25.4576 44.128 26.4502 42.7134 27.0061C40.6049 27.8789 37.2565 27.2135 37.2565 24.9709C37.2565 22.4344 40.2263 22.3509 40.7296 22.3509H46.1479V24.1712ZM56.8968 9.59089C56.5704 9.58828 56.2467 9.65091 55.9447 9.77515C55.6426 9.89938 55.3681 10.0827 55.1372 10.3145C54.9065 10.5466 54.7241 10.8224 54.6004 11.1259C54.4768 11.4294 54.4145 11.7546 54.417 12.0826V29.0726C54.419 29.7328 54.6809 30.3654 55.1455 30.8323C55.6101 31.2992 56.2397 31.5623 56.8968 31.5643C57.5538 31.5623 58.1834 31.2992 58.648 30.8323C59.1126 30.3654 59.3745 29.7328 59.3765 29.0726V19.1445C59.4231 19.054 59.4513 18.9551 59.4596 18.8535C59.5301 17.8062 59.8576 16.7928 60.4129 15.9037C60.6349 15.5304 60.9293 15.2056 61.2786 14.9488C61.6158 14.7033 61.9939 14.5204 62.3952 14.4087C62.7991 14.3003 63.2176 14.257 63.635 14.2804H63.9246C64.0077 14.2804 64.0493 14.3222 64.0894 14.3222H64.2542C64.2958 14.3222 64.3374 14.364 64.379 14.364H64.5438C64.6269 14.4057 64.7086 14.4057 64.7917 14.4475C64.8898 14.4698 64.9864 14.4977 65.0813 14.5311L65.3293 14.6564L65.5772 14.7817C65.6515 14.815 65.7209 14.8581 65.7836 14.91C66.1013 15.1236 66.3928 15.374 66.6523 15.6561C66.9058 15.9818 67.1271 16.3316 67.313 16.7005L67.561 17.3242C67.6485 17.5392 67.7175 17.7613 67.7674 17.9881C67.8674 18.4794 67.9226 18.9788 67.9322 19.4802V19.6458L67.9738 19.8532V29.1173C67.972 29.4431 68.0351 29.766 68.1596 30.0669C68.2841 30.3677 68.4673 30.6405 68.6984 30.869C68.9296 31.0976 69.204 31.2773 69.5054 31.3975C69.8069 31.5177 70.1293 31.5759 70.4535 31.5688C70.7777 31.5705 71.099 31.507 71.3984 31.3819C71.6978 31.2569 71.9693 31.0728 72.1967 30.8406C72.4242 30.6084 72.6031 30.3326 72.7227 30.0297C72.8423 29.7268 72.9002 29.4029 72.8931 29.077L72.8515 21.3094V19.3161C72.8161 18.5214 72.7193 17.7307 72.562 16.9512C72.3903 16.1399 72.1417 15.347 71.8196 14.5833C71.4448 13.7928 70.9723 13.0528 70.4134 12.381C70.2734 12.2048 70.1216 12.0383 69.9591 11.8827C69.8667 11.8262 69.7831 11.7563 69.7111 11.6753C69.6391 11.5942 69.5555 11.5243 69.4631 11.4679C69.3847 11.3762 69.2854 11.305 69.1736 11.2605C69.1015 11.1794 69.018 11.1096 68.9256 11.0531C68.8223 10.994 68.7253 10.9245 68.636 10.8457C68.5346 10.7996 68.4377 10.7442 68.3465 10.6801C67.5443 10.2239 66.6563 9.94081 65.7391 9.84901C65.3018 9.77852 64.8587 9.75054 64.4161 9.76546C64.3098 9.80244 64.197 9.81667 64.085 9.80724C64.0018 9.80724 63.8786 9.84901 63.7954 9.84901L63.1747 9.97435C62.9683 10.0579 62.7619 10.0997 62.5541 10.1817C62.3549 10.2323 62.161 10.3017 61.975 10.3891C61.6023 10.5548 61.2325 10.7636 60.8584 10.971L59.8665 11.7171L59.4121 12.1736C59.4123 12.1792 59.4113 12.1847 59.4093 12.1898C59.4072 12.1949 59.4041 12.1996 59.4002 12.2035C59.3964 12.2074 59.3917 12.2105 59.3866 12.2125C59.3815 12.2146 59.376 12.2156 59.3705 12.2154V12.0856C59.3729 11.7579 59.3105 11.433 59.1869 11.1297C59.0632 10.8264 58.8809 10.5509 58.6504 10.319C58.4202 10.0879 58.1467 9.90499 57.8457 9.78078C57.5447 9.65657 57.2221 9.59355 56.8968 9.59536V9.59089ZM78.2639 13.7492V23.9265C78.2697 25.9076 79.0555 27.8059 80.4497 29.2068C81.8438 30.6076 83.7329 31.3972 85.7045 31.4031C86.0309 31.4058 86.3545 31.3431 86.6566 31.2189C86.9586 31.0947 87.2331 30.9113 87.464 30.6795C87.6947 30.4475 87.8772 30.1717 88.0008 29.8681C88.1245 29.5646 88.1868 29.2394 88.1842 28.9114C88.1903 28.5825 88.1303 28.2558 88.0078 27.9507C87.8853 27.6456 87.7029 27.3685 87.4715 27.1359C87.24 26.9033 86.9642 26.72 86.6606 26.5969C86.357 26.4739 86.0318 26.4136 85.7045 26.4197C85.0474 26.4177 84.4178 26.1546 83.9532 25.6877C83.4886 25.2209 83.2267 24.5882 83.2248 23.928V13.7507H86.1188C86.666 13.7476 87.1899 13.5278 87.5768 13.1389C87.9638 12.7501 88.1825 12.2237 88.1857 11.6738C88.189 11.4008 88.1383 11.1298 88.0363 10.8767C87.9343 10.6236 87.7832 10.3934 87.5917 10.1996C87.3989 10.0073 87.1698 9.8554 86.918 9.75293C86.6661 9.65046 86.3964 9.59943 86.1247 9.60282H83.2262V5.65636C83.2323 5.32746 83.1723 5.00071 83.0499 4.69564C82.9274 4.39057 82.745 4.11344 82.5135 3.88082C82.282 3.64823 82.0062 3.46493 81.7026 3.34187C81.399 3.21882 81.0738 3.15854 80.7465 3.16464C80.4202 3.16203 80.0965 3.22466 79.7944 3.3489C79.4924 3.47313 79.2179 3.65648 78.987 3.88828C78.7563 4.12031 78.5738 4.39611 78.4502 4.69965C78.3266 5.00318 78.2642 5.32839 78.2668 5.65636V9.60282H76.6127C76.0678 9.60749 75.5465 9.82698 75.161 10.214C74.7756 10.6011 74.5567 11.1248 74.5517 11.6723C74.5598 12.2206 74.7801 12.7442 75.166 13.132C75.5519 13.5197 76.073 13.7411 76.6186 13.7492H78.2639ZM108.109 28.3295C109.974 26.1966 110.979 23.442 110.931 20.6037C110.988 17.7501 109.982 14.9779 108.109 12.8316C107.13 11.7573 105.936 10.9027 104.606 10.3237C103.275 9.74474 101.838 9.45434 100.388 9.47153C98.9426 9.45289 97.5094 9.74276 96.1835 10.322C94.8576 10.9012 93.6692 11.7566 92.6967 12.8316C90.8163 14.9752 89.7997 17.7466 89.8457 20.6037C89.8084 23.4456 90.8252 26.1997 92.6982 28.3295C93.6697 29.4059 94.8576 30.2628 96.1833 30.8436C97.5089 31.4244 98.9421 31.7158 100.388 31.6986C101.839 31.7187 103.278 31.4289 104.609 30.8483C105.94 30.2678 107.133 29.4083 108.109 28.3295ZM96.3791 25.0067C95.3408 23.7794 94.7824 22.2144 94.8081 20.6037C94.7752 18.9792 95.3339 17.3986 96.3791 16.1589C96.8859 15.6017 97.5065 15.1611 98.1985 14.8673C98.8904 14.5735 99.6374 14.4333 100.388 14.4565C101.145 14.433 101.898 14.5728 102.597 14.8664C103.296 15.1601 103.924 15.6008 104.439 16.1589C105.47 17.4037 106.013 18.9846 105.965 20.6037C106.006 22.2091 105.464 23.7744 104.439 25.0067C103.924 25.5645 103.296 26.005 102.597 26.2984C101.898 26.5918 101.145 26.7313 100.388 26.7077C99.6374 26.7308 98.8904 26.5907 98.1985 26.2968C97.5065 26.003 96.8859 25.5639 96.3791 25.0067ZM116.722 9.59536C116.395 9.59276 116.072 9.65539 115.77 9.77963C115.467 9.90386 115.193 10.0872 114.962 10.319C114.731 10.551 114.549 10.8268 114.425 11.1304C114.302 11.4339 114.239 11.7591 114.242 12.0871V29.077C114.244 29.7373 114.506 30.3699 114.97 30.8368C115.435 31.3036 116.065 31.5668 116.722 31.5688C117.379 31.5668 118.008 31.3036 118.473 30.8368C118.938 30.3699 119.199 29.7373 119.201 29.077V19.1489C119.248 19.0585 119.276 18.9596 119.285 18.858C119.354 17.811 119.681 16.7976 120.235 15.9082C120.457 15.5348 120.751 15.2101 121.1 14.9533C121.438 14.7078 121.816 14.5249 122.217 14.4132C122.621 14.3048 123.04 14.2615 123.457 14.2849H123.747C123.83 14.2849 123.871 14.3267 123.911 14.3267H124.076C124.118 14.3267 124.159 14.3684 124.201 14.3684H124.366C124.449 14.4102 124.531 14.4102 124.614 14.452C124.712 14.4743 124.808 14.5022 124.903 14.5355L125.151 14.6609L125.399 14.7862C125.473 14.8195 125.543 14.8626 125.606 14.9145C125.923 15.1281 126.215 15.3785 126.474 15.6605C126.728 15.9863 126.949 16.3361 127.135 16.705L127.383 17.3287C127.47 17.5437 127.539 17.7658 127.589 17.9926C127.689 18.4839 127.745 18.9833 127.754 19.4847V19.6503L127.796 19.8577V29.1218C127.794 29.4476 127.857 29.7705 127.982 30.0714C128.106 30.3722 128.289 30.645 128.52 30.8735C128.751 31.1021 129.026 31.2818 129.327 31.402C129.629 31.5221 129.951 31.5804 130.275 31.5732C130.6 31.5751 130.921 31.5116 131.22 31.3865C131.52 31.2615 131.791 31.0774 132.019 30.8451C132.246 30.6128 132.425 30.3371 132.545 30.0342C132.664 29.7313 132.722 29.4073 132.715 29.0815L132.673 21.3139V19.3205C132.638 18.5259 132.541 17.7352 132.384 16.9556C132.212 16.1443 131.964 15.3514 131.641 14.5878C131.266 13.7966 130.793 13.0562 130.234 12.384C130.094 12.2077 129.942 12.0412 129.779 11.8857C129.687 11.8292 129.604 11.7593 129.532 11.6783C129.46 11.5972 129.376 11.5273 129.284 11.4709C129.205 11.3792 129.106 11.308 128.994 11.2635C128.922 11.1824 128.838 11.1125 128.746 11.0561C128.643 10.997 128.546 10.9275 128.456 10.8487C128.355 10.8026 128.258 10.7472 128.167 10.6831C127.365 10.2268 126.477 9.9438 125.56 9.852C125.122 9.78151 124.679 9.75353 124.237 9.76844C124.13 9.80542 124.017 9.81965 123.905 9.81022C123.822 9.81022 123.699 9.852 123.616 9.852L122.995 9.97733C122.789 10.0609 122.582 10.1027 122.375 10.1847C122.175 10.2353 121.981 10.3047 121.795 10.3921C121.423 10.5577 121.053 10.7666 120.679 10.974L119.687 11.72L119.233 12.1766C119.233 12.1821 119.232 12.1876 119.23 12.1928C119.228 12.1979 119.225 12.2026 119.221 12.2064C119.217 12.2104 119.212 12.2135 119.207 12.2155C119.202 12.2176 119.196 12.2186 119.191 12.2184V12.0856C119.193 11.7582 119.131 11.4337 119.008 11.1307C118.884 10.8277 118.702 10.5523 118.472 10.3205C118.242 10.0887 117.969 9.90511 117.667 9.78038C117.366 9.65565 117.043 9.59225 116.717 9.59387L116.722 9.59536Z" fill="#03A587"/>
<path id="Path 17" d="M148.947 25.7854C149.635 25.7885 150.323 25.7416 151.005 25.6451C151.626 25.5546 152.156 25.4552 152.595 25.3467L153.835 30.7271C153.241 30.8574 152.531 30.9807 151.704 31.0971C150.791 31.2193 149.871 31.2777 148.95 31.2717C148.666 31.2717 148.375 31.2652 148.077 31.2523C147.779 31.2393 147.474 31.2199 147.162 31.1941C145.858 31.0678 144.582 30.7386 143.379 30.2183C142.198 29.7137 141.125 28.9864 140.217 28.0757C139.28 27.1547 138.524 26.0637 137.99 24.8603C137.429 23.6062 137.144 22.2455 137.153 20.8706C137.142 19.4939 137.426 18.131 137.987 16.8749C138.521 15.6715 139.277 14.5805 140.214 13.6595C141.122 12.7483 142.195 12.0204 143.376 11.5154C144.579 10.9961 145.855 10.6679 147.159 10.5426C147.47 10.5168 147.774 10.4974 148.071 10.4844C148.368 10.4715 148.659 10.465 148.944 10.465C149.865 10.459 150.785 10.5174 151.698 10.6396C152.526 10.757 153.237 10.8803 153.832 11.0096L152.592 16.381C152.152 16.2756 151.622 16.1761 151.002 16.0826C150.321 15.9872 149.633 15.9414 148.945 15.9453C148.738 15.9453 148.525 15.9518 148.305 15.9647C148.086 15.9777 147.872 15.9971 147.665 16.0229C146.955 16.0651 146.258 16.237 145.609 16.5302C145.025 16.7914 144.488 17.1467 144.019 17.5821C143.594 18.0017 143.252 18.4978 143.01 19.0443C142.769 19.622 142.651 20.2442 142.664 20.8706C142.653 21.4855 142.772 22.0959 143.013 22.661C143.259 23.1998 143.601 23.6888 144.022 24.1039C144.482 24.5606 145.021 24.9305 145.612 25.196C146.261 25.4892 146.958 25.6611 147.668 25.7033C147.875 25.7292 148.089 25.7486 148.308 25.7615C148.528 25.7745 148.741 25.7824 148.947 25.7854ZM161.439 21.6957C161.427 22.2054 161.518 22.7123 161.709 23.185C161.899 23.6577 162.184 24.0862 162.545 24.444C162.901 24.8071 163.328 25.0929 163.798 25.2838C164.269 25.4747 164.773 25.5667 165.28 25.5541V30.9255C164.034 30.9328 162.799 30.6788 161.656 30.1795C160.555 29.7063 159.554 29.0284 158.704 28.1816C157.858 27.3292 157.181 26.3238 156.707 25.2184C156.21 24.0695 155.957 22.829 155.964 21.5763V3.68368C156.706 3.41421 157.465 3.19294 158.235 3.02122C159.29 2.7869 160.359 2.61748 161.435 2.51392L161.439 21.6957ZM184.561 13.5834C185.475 14.5316 186.205 15.6422 186.714 16.8585C187.25 18.1282 187.521 19.4946 187.512 20.8736C187.521 22.2525 187.251 23.6188 186.716 24.8887C186.201 26.1121 185.457 27.2242 184.523 28.1637C183.585 29.1035 182.48 29.8572 181.265 30.3854C180.004 30.9353 178.643 31.2143 177.269 31.2045C175.895 31.2143 174.534 30.9353 173.273 30.3854C172.057 29.8574 170.952 29.1036 170.014 28.1637C169.08 27.2241 168.336 26.112 167.822 24.8887C167.288 23.6187 167.018 22.2524 167.028 20.8736C167.02 19.4886 167.298 18.1171 167.843 16.845C168.365 15.6157 169.116 14.4976 170.054 13.5506C170.989 12.6124 172.096 11.8646 173.313 11.3483C174.577 10.8114 175.937 10.5397 177.309 10.5501C178.687 10.5425 180.052 10.8214 181.318 11.3692C182.534 11.8853 183.636 12.6378 184.561 13.5834ZM177.268 25.7078C177.901 25.7109 178.528 25.585 179.112 25.3378C179.684 25.0969 180.204 24.7462 180.643 24.3053C181.082 23.8642 181.432 23.3412 181.672 22.7655C181.921 22.1654 182.046 21.5207 182.04 20.8706C182.044 20.2158 181.919 19.5667 181.672 18.9608C181.441 18.3853 181.098 17.8619 180.663 17.421C180.23 16.9875 179.716 16.6434 179.15 16.4079C178.567 16.1607 177.939 16.0348 177.306 16.0378C176.661 16.0325 176.021 16.1583 175.425 16.4079C174.856 16.646 174.341 16.9978 173.912 17.4419C173.481 17.8894 173.133 18.4103 172.884 18.9802C172.624 19.5757 172.491 20.22 172.497 20.8706C172.491 21.5192 172.617 22.1623 172.865 22.761C173.105 23.3367 173.454 23.8598 173.894 24.3008C174.328 24.7387 174.842 25.0891 175.407 25.3333C175.995 25.5854 176.628 25.7129 177.268 25.7078ZM209.352 20.7214C209.367 22.1382 209.158 23.5484 208.732 24.8991C208.345 26.1251 207.704 27.2546 206.85 28.213C205.98 29.1693 204.906 29.9155 203.708 30.3958C202.305 30.9431 200.809 31.2083 199.304 31.1762C197.793 31.2069 196.291 30.9419 194.881 30.3958C193.68 29.9221 192.604 29.1749 191.739 28.213C190.896 27.2502 190.262 26.1217 189.877 24.8991C189.451 23.5484 189.242 22.1382 189.256 20.7214V11.8333C189.999 11.5625 190.756 11.3348 191.525 11.1514C192.578 10.9059 193.648 10.7432 194.727 10.665V20.7214C194.723 21.3654 194.801 22.0072 194.96 22.6312C195.102 23.2034 195.36 23.7405 195.715 24.2098C196.084 24.6801 196.565 25.0491 197.114 25.2826C197.81 25.5636 198.556 25.6962 199.306 25.672C200.055 25.6962 200.802 25.5636 201.497 25.2826C202.046 25.0491 202.527 24.6801 202.896 24.2098C203.252 23.7405 203.509 23.2034 203.652 22.6312C203.811 22.0072 203.889 21.3654 203.885 20.7214V11.8318C204.619 11.5552 205.371 11.3275 206.135 11.1499C207.194 10.9055 208.271 10.7429 209.355 10.6635L209.352 20.7214ZM226.538 3.6434C227.281 3.37261 228.038 3.14494 228.807 2.96153C229.859 2.71566 230.928 2.55254 232.005 2.47363V29.6453L230.182 30.269C230.13 30.2949 229.936 30.36 229.6 30.4645C229.263 30.5689 228.811 30.6793 228.243 30.7957C227.674 30.9131 227.001 31.0235 226.225 31.1269C225.376 31.2332 224.521 31.283 223.665 31.2761C223.381 31.2761 223.09 31.2697 222.792 31.2567C222.494 31.2438 222.203 31.2244 221.919 31.1985C220.603 31.0752 219.314 30.746 218.1 30.2227C216.919 29.7179 215.845 28.9901 214.937 28.0787C213.999 27.1576 213.244 26.0667 212.71 24.8633C212.149 23.6083 211.877 22.2427 211.914 20.8676C211.906 19.4846 212.177 18.1143 212.71 16.8391C213.22 15.6081 213.964 14.4891 214.901 13.5446C215.841 12.6032 216.955 11.8552 218.18 11.3424C219.449 10.8074 220.813 10.5359 222.189 10.5441C223.656 10.5198 225.118 10.7036 226.534 11.0902L226.538 3.6434ZM226.538 17.1703C226.023 16.8079 225.453 16.5313 224.85 16.3512C223.984 16.1171 223.088 16.0121 222.192 16.0393C221.546 16.034 220.906 16.1598 220.311 16.4094C219.738 16.6505 219.217 17.0017 218.778 17.4433C218.339 17.8845 217.99 18.4076 217.751 18.9831C217.502 19.5819 217.377 20.2249 217.382 20.8736C217.371 21.4885 217.49 22.0989 217.731 22.664C217.977 23.2027 218.319 23.6917 218.74 24.1068C219.2 24.5629 219.738 24.9323 220.328 25.1975C220.978 25.4907 221.674 25.6626 222.385 25.7048C222.592 25.7307 222.805 25.7501 223.025 25.763C223.245 25.7759 223.458 25.7824 223.665 25.7824C224.183 25.7838 224.701 25.7579 225.217 25.7048C225.712 25.6531 226.151 25.5879 226.535 25.5094L226.538 17.1703Z" fill="#3F4F8F"/>
</g>
</svg>
