<svg width="16" height="16" viewBox="0 0 16 16" fill="none" xmlns="http://www.w3.org/2000/svg">
<g id="github">
<path id="Vector" d="M6.7142 13.669C6.71418 13.5712 6.69267 13.4746 6.65117 13.3861C6.60967 13.2976 6.54921 13.2192 6.47407 13.1567C6.39894 13.0941 6.31096 13.0488 6.21638 13.0241C6.12179 12.9993 6.02292 12.9956 5.92677 13.0134C5.05405 13.1735 3.95216 13.1976 3.65919 12.3747C3.40372 11.7374 2.98057 11.181 2.43458 10.7647C2.39562 10.7435 2.3585 10.7191 2.32358 10.6918C2.27579 10.5657 2.19092 10.4571 2.08015 10.3803C1.96939 10.3035 1.83793 10.262 1.70313 10.2614H1.69988C1.52361 10.2614 1.3545 10.3311 1.22955 10.4555C1.10461 10.5798 1.03401 10.7486 1.03321 10.9248C1.03061 11.4685 1.57388 11.8168 1.79428 11.9346C2.05417 12.1957 2.26305 12.5031 2.41017 12.8409C2.65301 13.5231 3.35873 14.5583 5.38738 14.4249C5.38805 14.4483 5.38868 14.4704 5.38901 14.4906L5.39193 14.669C5.39193 14.8458 5.46217 15.0154 5.58719 15.1404C5.71222 15.2654 5.88179 15.3357 6.0586 15.3357C6.23541 15.3357 6.40498 15.2654 6.53 15.1404C6.65503 15.0154 6.72527 14.8458 6.72527 14.669L6.72201 14.4568C6.71876 14.3304 6.7142 14.1475 6.7142 13.669ZM13.8255 3.58495C13.8467 3.50162 13.8675 3.40917 13.8858 3.305C13.9936 2.56206 13.8996 1.8038 13.6136 1.10967C13.5775 1.01918 13.5221 0.937676 13.4512 0.870873C13.3803 0.80407 13.2956 0.753585 13.2031 0.722958C12.9658 0.642878 12.0895 0.485324 10.4138 1.55629C9.02078 1.22849 7.57073 1.22849 6.17775 1.55629C4.5088 0.501011 3.63705 0.644211 3.40203 0.719731C3.30727 0.749118 3.22029 0.799335 3.14746 0.866703C3.07463 0.93407 3.0178 1.01688 2.98113 1.10906C2.68933 1.81652 2.59635 2.59025 2.71225 3.34669C2.72853 3.43198 2.7461 3.51076 2.76433 3.58302C2.21205 4.31865 1.91787 5.21593 1.92742 6.13575C1.92562 6.34097 1.93507 6.54614 1.95574 6.75033C2.17841 9.81869 4.17841 10.7399 5.57195 11.0563C5.54298 11.1397 5.51661 11.2289 5.49317 11.3233C5.4514 11.4948 5.47935 11.6759 5.5709 11.8268C5.66246 11.9778 5.81013 12.0863 5.98155 12.1285C6.15297 12.1707 6.33414 12.1433 6.48534 12.0521C6.63653 11.961 6.74541 11.8136 6.78809 11.6423C6.83051 11.4201 6.93924 11.2161 7.09995 11.057C7.19712 10.9719 7.26747 10.8604 7.30245 10.7361C7.33743 10.6118 7.33552 10.48 7.29696 10.3567C7.25841 10.2335 7.18486 10.1241 7.08527 10.0418C6.98568 9.95961 6.86434 9.9081 6.73601 9.89357C4.43328 9.63054 3.4336 8.6924 3.28321 6.62794C3.26655 6.46443 3.25906 6.30011 3.26075 6.13576C3.25006 5.48019 3.46664 4.84114 3.87371 4.32716C3.91461 4.27358 3.95817 4.22208 4.00424 4.17286C4.08586 4.08153 4.14074 3.96948 4.16285 3.849C4.18496 3.72853 4.17344 3.60429 4.12957 3.48992C4.0846 3.36961 4.04997 3.24568 4.02606 3.11948C3.97175 2.76062 3.98956 2.39454 4.07846 2.04265C4.65788 2.2063 5.2032 2.47268 5.68846 2.8291C5.76871 2.88255 5.85951 2.91812 5.95471 2.9334C6.04991 2.94868 6.14728 2.94331 6.24022 2.91765C7.58762 2.55198 9.00817 2.55221 10.3555 2.91832C10.4489 2.94394 10.5468 2.94901 10.6424 2.93316C10.738 2.91732 10.829 2.88093 10.9092 2.82652C11.3921 2.46862 11.9352 2.19986 12.5127 2.0329C12.6012 2.37634 12.621 2.73388 12.5709 3.08498C12.5468 3.22334 12.5091 3.35898 12.4583 3.48994C12.4144 3.6043 12.4029 3.72854 12.425 3.84901C12.4471 3.96949 12.502 4.08155 12.5836 4.17288C12.6351 4.23082 12.6865 4.29332 12.7327 4.35191C13.1369 4.85719 13.3498 5.48889 13.334 6.13575C13.3352 6.30882 13.3268 6.48183 13.3089 6.65398C13.1621 8.69108 12.1585 9.62989 9.84506 9.89356C9.7167 9.90818 9.59535 9.95978 9.49577 10.0421C9.39619 10.1244 9.32267 10.2339 9.28415 10.3572C9.24563 10.4805 9.24377 10.6123 9.2788 10.7367C9.31383 10.861 9.38423 10.9725 9.48145 11.0576C9.64721 11.221 9.75617 11.4332 9.79233 11.6631C9.83738 11.8416 9.85807 12.0253 9.85385 12.2093V13.7653C9.84733 14.1969 9.84733 14.5205 9.84733 14.669C9.84733 14.8458 9.91756 15.0153 10.0426 15.1404C10.1676 15.2654 10.3372 15.3356 10.514 15.3356C10.6908 15.3356 10.8604 15.2654 10.9854 15.1404C11.1104 15.0153 11.1807 14.8458 11.1807 14.669C11.1807 14.5244 11.1807 14.2074 11.1872 13.7757V12.2093C11.1925 11.9145 11.1578 11.6204 11.084 11.335C11.0629 11.2413 11.037 11.1487 11.0065 11.0576C12.0207 10.8892 12.9422 10.3663 13.6069 9.58204C14.2717 8.79782 14.6366 7.80314 14.6367 6.77508C14.6587 6.5627 14.6689 6.34926 14.6673 6.13575C14.6821 5.21493 14.3855 4.31609 13.8255 3.58495Z" fill="white"/>
</g>
</svg>
