<svg width="16" height="16" viewBox="0 0 16 16" fill="none" xmlns="http://www.w3.org/2000/svg">
<g id="instagram">
<path id="Vector" d="M11.5607 3.63967C11.4024 3.63967 11.2478 3.68659 11.1162 3.7745C10.9846 3.8624 10.8821 3.98735 10.8215 4.13353C10.761 4.27971 10.7452 4.44056 10.776 4.59575C10.8069 4.75093 10.8831 4.89348 10.995 5.00536C11.1068 5.11724 11.2494 5.19343 11.4046 5.2243C11.5598 5.25517 11.7206 5.23933 11.8668 5.17878C12.013 5.11823 12.1379 5.01569 12.2258 4.88413C12.3137 4.75257 12.3607 4.5979 12.3607 4.43967C12.3607 4.2275 12.2764 4.02402 12.1263 3.87399C11.9763 3.72396 11.7728 3.63967 11.5607 3.63967ZM14.6273 5.25301C14.6144 4.69987 14.5108 4.15261 14.3207 3.63301C14.1511 3.18843 13.8873 2.78586 13.5473 2.45301C13.2172 2.11129 12.8137 1.84913 12.3673 1.68634C11.8491 1.49045 11.3012 1.38448 10.7473 1.37301C10.0407 1.33301 9.81398 1.33301 8.00065 1.33301C6.18732 1.33301 5.96065 1.33301 5.25398 1.37301C4.70009 1.38448 4.15221 1.49045 3.63398 1.68634C3.18844 1.85077 2.78527 2.11271 2.45398 2.45301C2.11227 2.78313 1.8501 3.18663 1.68732 3.63301C1.49142 4.15124 1.38546 4.69911 1.37398 5.25301C1.33398 5.95967 1.33398 6.18634 1.33398 7.99967C1.33398 9.81301 1.33398 10.0397 1.37398 10.7463C1.38546 11.3002 1.49142 11.8481 1.68732 12.3663C1.8501 12.8127 2.11227 13.2162 2.45398 13.5463C2.78527 13.8866 3.18844 14.1486 3.63398 14.313C4.15221 14.5089 4.70009 14.6149 5.25398 14.6263C5.96065 14.6663 6.18732 14.6663 8.00065 14.6663C9.81398 14.6663 10.0407 14.6663 10.7473 14.6263C11.3012 14.6149 11.8491 14.5089 12.3673 14.313C12.8137 14.1502 13.2172 13.8881 13.5473 13.5463C13.8888 13.2147 14.1529 12.8118 14.3207 12.3663C14.5108 11.8467 14.6144 11.2995 14.6273 10.7463C14.6273 10.0397 14.6673 9.81301 14.6673 7.99967C14.6673 6.18634 14.6673 5.95967 14.6273 5.25301ZM13.4273 10.6663C13.4225 11.0895 13.3458 11.5088 13.2007 11.9063C13.0942 12.1965 12.9232 12.4586 12.7007 12.673C12.4844 12.8933 12.2228 13.064 11.934 13.173C11.5365 13.3182 11.1172 13.3948 10.694 13.3997C10.0273 13.433 9.78065 13.4397 8.02732 13.4397C6.27398 13.4397 6.02732 13.4397 5.36065 13.3997C4.92124 13.4079 4.48371 13.3402 4.06732 13.1997C3.79117 13.0851 3.54155 12.9149 3.33398 12.6997C3.11271 12.4855 2.94388 12.2231 2.84065 11.933C2.67789 11.5298 2.58761 11.101 2.57398 10.6663C2.57398 9.99967 2.53398 9.75301 2.53398 7.99967C2.53398 6.24634 2.53398 5.99967 2.57398 5.33301C2.57697 4.90038 2.65595 4.47164 2.80732 4.06634C2.92468 3.78495 3.10483 3.53411 3.33398 3.33301C3.53653 3.10379 3.78684 2.92174 4.06732 2.79967C4.47368 2.65304 4.90198 2.57639 5.33398 2.57301C6.00065 2.57301 6.24732 2.53301 8.00065 2.53301C9.75398 2.53301 10.0007 2.53301 10.6673 2.57301C11.0905 2.57786 11.5098 2.65451 11.9073 2.79967C12.2103 2.91211 12.4822 3.09491 12.7007 3.33301C12.9191 3.53779 13.0898 3.78816 13.2007 4.06634C13.3488 4.4723 13.4255 4.90086 13.4273 5.33301C13.4606 5.99967 13.4673 6.24634 13.4673 7.99967C13.4673 9.75301 13.4606 9.99967 13.4273 10.6663ZM8.00065 4.57967C7.32452 4.58099 6.66396 4.78269 6.10242 5.15929C5.54088 5.53588 5.10357 6.07047 4.84574 6.69551C4.58791 7.32055 4.52113 8.00799 4.65385 8.67096C4.78656 9.33394 5.11281 9.9427 5.59137 10.4203C6.06993 10.898 6.67932 11.223 7.34256 11.3544C8.00579 11.4859 8.69309 11.4177 9.31763 11.1587C9.94216 10.8997 10.4759 10.4613 10.8514 9.89903C11.2269 9.33676 11.4273 8.6758 11.4273 7.99967C11.4282 7.54974 11.3401 7.10408 11.1681 6.68831C10.9962 6.27254 10.7437 5.89488 10.4252 5.57704C10.1068 5.2592 9.72862 5.00746 9.31252 4.83629C8.89641 4.66513 8.45058 4.57792 8.00065 4.57967ZM8.00065 10.2197C7.56158 10.2197 7.13236 10.0895 6.76728 9.84554C6.40221 9.6016 6.11766 9.25488 5.94964 8.84923C5.78161 8.44358 5.73765 7.99721 5.82331 7.56657C5.90897 7.13594 6.1204 6.74037 6.43087 6.4299C6.74135 6.11942 7.13691 5.90799 7.56755 5.82233C7.99819 5.73667 8.44456 5.78063 8.85021 5.94866C9.25586 6.11669 9.60258 6.40123 9.84651 6.76631C10.0905 7.13139 10.2207 7.5606 10.2207 7.99967C10.2207 8.29121 10.1632 8.57989 10.0517 8.84923C9.9401 9.11857 9.77657 9.36331 9.57043 9.56945C9.36428 9.7756 9.11955 9.93912 8.85021 10.0507C8.58086 10.1623 8.29219 10.2197 8.00065 10.2197Z" fill="white"/>
</g>
</svg>
