<svg id="icon" xmlns="http://www.w3.org/2000/svg" width="40.008" height="44.696" viewBox="0 0 40.008 44.696">
  <g id="Group_813" data-name="Group 813">
    <path id="Path_177" data-name="Path 177" d="M17.544,0H9.763C-.719,0,.01,8.2.01,8.2V40.074c-.006.1-.01.194-.01.292s0,.2.01.292a4.33,4.33,0,0,0,8.65-.292c0-.284-.08-26.392-.08-27.121,0-.172.005-.338.014-.5v0C8.594,1.4,17.544,0,17.544,0Z" transform="translate(0.001 0)" fill="#4259a1"/>
    <path id="Path_178" data-name="Path 178" d="M88.787,0H83.736s-8.95,1.4-8.95,12.745v0C75.079,7.716,85.21,8.2,85.21,8.2h1.025a7.383,7.383,0,0,1,.606,14.741c-.2.016-.4.027-.606.027h-2.6s-6.173-.415-6.173,4.423,7,4.289,7,4.289h4.323c.3,0,.6-.013.895-.032,7.336-.462,13.144-7.246,13.144-15.732S96.54,0,88.787,0Z" transform="translate(-62.818)" fill="#1cab98"/>
  </g>
</svg>
