<svg width="20" height="20" viewBox="0 0 20 20" fill="none" xmlns="http://www.w3.org/2000/svg">
<g id="Interface">
<path id="Vector" d="M15.1847 11.905C14.8859 11.8078 14.5594 11.9544 14.4066 12.2209L13.7909 13.2934C13.5119 13.7794 13.1678 14.0662 12.755 14.2163L9.52625 15.3875C9.34469 15.4534 9.13219 15.4213 8.99688 15.2866C8.75281 15.0437 8.84125 14.6584 9.14312 14.5288L10.7531 13.6581C11.0788 13.5181 11.2178 13.1431 11.0584 12.8347C10.9213 12.5694 10.6053 12.4391 10.3128 12.5278L7.45656 13.6141C6.68313 13.8478 6.06281 14.4109 5.77187 15.1428L5.46625 15.9119C5.27875 16.3834 5.11344 16.8631 4.97063 17.3491L4.375 19.375H8.08875C8.06219 18.7472 8.40906 18.1597 8.98188 17.8631L14.0728 15.3328C14.4894 15.1259 14.8097 14.7744 14.9697 14.3484L15.5866 12.7072C15.7081 12.3831 15.5341 12.0188 15.1847 11.905ZM3.4375 10.3125C3.4375 10.6578 3.71719 10.9375 4.0625 10.9375H17.1875C17.5328 10.9375 17.8125 10.6578 17.8125 10.3125V3.75H3.4375V10.3125ZM16.5625 9.6875H13.75V7.8125H16.5625V9.6875ZM9.6875 5.3125H16.5625V6.5625H9.6875V5.3125ZM9.6875 7.8125H12.5V9.6875H9.6875V7.8125ZM4.6875 5.3125H8.4375V9.6875H4.6875V5.3125ZM17.1875 0.625H4.0625C3.71719 0.625 3.4375 0.904687 3.4375 1.25V3.125H17.8125V1.25C17.8125 0.904687 17.5328 0.625 17.1875 0.625ZM14.375 2.1875H13.75V1.5625H14.375V2.1875ZM15.625 2.1875H15V1.5625H15.625V2.1875ZM16.875 2.1875H16.25V1.5625H16.875V2.1875Z" fill="white" />
</g>
</svg>
