<svg width="20" height="20" viewBox="0 0 20 20" fill="none" xmlns="http://www.w3.org/2000/svg">
<g id="Navigate">
<path id="Vector" fill-rule="evenodd" clip-rule="evenodd" d="M17.8088 3.04956C17.7711 3.02205 17.7266 3.00529 17.6801 3.00106C17.6336 2.99683 17.5869 3.0053 17.5448 3.02556L2.14481 10.0436C2.10416 10.0596 2.06898 10.087 2.04346 10.1224C2.01793 10.1579 2.00312 10.1999 2.00081 10.2436C1.99665 10.2908 2.00863 10.3381 2.03478 10.3777C2.06093 10.4173 2.09971 10.4468 2.14481 10.4616C3.25081 10.9176 6.71081 12.5756 7.02481 12.3596L10.9808 9.44356L7.23281 12.6176C7.19919 12.6662 7.18234 12.7245 7.18481 12.7836L7.90481 17.1836C7.9063 17.2327 7.92337 17.2801 7.95357 17.319C7.98377 17.3578 8.02552 17.386 8.07281 17.3996H8.14481C8.21838 17.403 8.29031 17.3771 8.34481 17.3276L10.0928 13.7996L13.5108 16.0296C13.5381 16.0546 13.5738 16.0685 13.6108 16.0685C13.6478 16.0685 13.6835 16.0546 13.7108 16.0296C13.7448 16.0192 13.7757 16.0007 13.8008 15.9756C13.826 15.9505 13.8445 15.9196 13.8548 15.8856L17.8808 3.31356C17.8934 3.26713 17.8934 3.21818 17.8807 3.17176C17.8681 3.12535 17.8432 3.08316 17.8088 3.04956Z" fill="white" fill-opacity="0.6"/>
</g>
</svg>
