<svg width="18" height="18" viewBox="0 0 18 18" fill="none" xmlns="http://www.w3.org/2000/svg">
<g id="Audit Management" clip-path="url(#clip0_8431_2108)">
<path id="Vector" d="M17.6598 10.3937C17.638 10.2764 17.5425 10.1864 17.4253 10.17L16.8825 10.091C16.8225 9.89732 16.7462 9.7146 16.6562 9.54278L16.9807 9.09823C16.9971 9.07369 17.0107 9.04914 17.0216 9.02187C17.0325 8.99187 17.038 8.95914 17.038 8.92914C17.038 8.8746 17.0216 8.82005 16.9916 8.77641C16.7053 8.35641 16.3398 7.99096 15.9116 7.69096C15.8271 7.63369 15.7125 7.62823 15.6171 7.68005C15.6062 7.6855 15.5925 7.69369 15.5816 7.70187L15.1425 8.02369C14.9625 7.93096 14.7798 7.8546 14.5916 7.7946L14.5098 7.2546C14.4934 7.14005 14.4007 7.0446 14.2889 7.02278C14.1253 6.99278 13.9616 6.97369 13.7953 6.96278V1.81914C13.7953 1.15914 13.258 0.619141 12.5953 0.619141H1.47344C0.81071 0.619141 0.273438 1.15641 0.273438 1.81914V16.1837C0.273438 16.8437 0.81071 17.381 1.47344 17.381H12.5953C13.2553 17.381 13.7953 16.8437 13.7953 16.1837V15.3628C13.9616 15.3519 14.128 15.3355 14.2889 15.3055C14.3434 15.2946 14.3925 15.2701 14.4307 15.2291C14.4716 15.1882 14.5016 15.131 14.5098 15.071L14.5916 14.5282C14.7771 14.4682 14.9625 14.3919 15.1425 14.2991L15.5843 14.6237C15.5898 14.6264 15.5953 14.6291 15.598 14.6346C15.6907 14.6973 15.8134 14.7001 15.9089 14.6346C16.2198 14.4219 16.5007 14.1655 16.7407 13.8764C16.8253 13.7755 16.9071 13.6691 16.9916 13.5437C17.0462 13.4619 17.0516 13.35 17.008 13.2628C16.9998 13.2491 16.9916 13.2355 16.9834 13.2219L16.6562 12.7801C16.6889 12.7173 16.7216 12.6546 16.7543 12.5864C16.8062 12.4664 16.8498 12.3491 16.8853 12.2346L17.4198 12.1528C17.5398 12.1419 17.6407 12.0491 17.6625 11.9291C17.7089 11.6646 17.7307 11.4137 17.7307 11.1628C17.728 10.9119 17.7062 10.6528 17.6598 10.3937ZM13.2498 16.1837C13.2498 16.5437 12.958 16.8355 12.5953 16.8355H1.47344C1.11344 16.8355 0.818892 16.5437 0.818892 16.1837V1.81914C0.818892 1.45914 1.11071 1.1646 1.47344 1.1646H12.5953C12.9553 1.1646 13.2498 1.45641 13.2498 1.81914V6.9546C13.2471 6.9546 13.2443 6.95732 13.2389 6.96005C13.0725 6.97096 12.9089 6.98732 12.748 7.02005C12.6334 7.04187 12.5434 7.13732 12.5271 7.25187L12.4453 7.79187C12.2625 7.85187 12.0798 7.92823 11.8998 8.02096L11.4553 7.69914C11.4498 7.69641 11.4471 7.69369 11.4416 7.69096C11.3489 7.62823 11.2262 7.6255 11.1307 7.69096C10.708 7.98278 10.3425 8.34823 10.0453 8.77914C9.98798 8.86369 9.98253 8.97005 10.0262 9.0546C10.0343 9.07096 10.0425 9.08459 10.0534 9.10096L10.378 9.54278C10.288 9.7146 10.2116 9.90005 10.1516 10.091L9.61162 10.1728C9.55162 10.181 9.49162 10.211 9.45071 10.2519C9.41253 10.29 9.38526 10.3391 9.37435 10.3937C9.32798 10.6364 9.30616 10.8955 9.30616 11.1628C9.30616 11.4246 9.32798 11.681 9.37162 11.9264C9.39071 12.0355 9.47526 12.12 9.57889 12.1446C9.5898 12.1473 9.60071 12.1501 9.60889 12.1501L10.1516 12.2346C10.1871 12.3464 10.2307 12.4637 10.2853 12.5891C10.3125 12.6519 10.3425 12.7146 10.3807 12.7828L10.0671 13.2082C10.0534 13.2246 10.0398 13.2437 10.0289 13.2628C9.98253 13.3528 9.98798 13.4619 10.0453 13.5437C10.1434 13.6855 10.2307 13.8 10.3153 13.8982C10.5553 14.1819 10.828 14.4273 11.128 14.6346C11.2207 14.7001 11.3571 14.6946 11.4498 14.6264L11.8916 14.3019C12.0716 14.3946 12.2543 14.471 12.4425 14.531L12.5243 15.0737C12.5325 15.1337 12.5625 15.191 12.6034 15.2319C12.6443 15.2728 12.6934 15.2973 12.748 15.3082C12.9116 15.3382 13.0753 15.3546 13.2362 15.3655C13.2389 15.3655 13.2416 15.3682 13.2443 15.3682V16.1837H13.2498ZM17.1498 11.6428L16.6234 11.7246C16.5171 11.741 16.4298 11.8201 16.4025 11.9264C16.3643 12.0737 16.3125 12.221 16.2525 12.3628C16.2034 12.4664 16.1489 12.5673 16.0916 12.6682C16.0371 12.7637 16.0425 12.881 16.108 12.9682L16.4243 13.3964C16.3889 13.4428 16.3562 13.4864 16.3207 13.5273C16.1516 13.7291 15.9607 13.9119 15.7507 14.0728L15.3198 13.7591C15.2325 13.6964 15.1153 13.6882 15.0225 13.7428C14.7798 13.8819 14.5289 13.9855 14.2753 14.0537C14.1689 14.081 14.0925 14.1682 14.0762 14.2773L13.9971 14.801C13.6998 14.8391 13.3698 14.8419 13.0343 14.7982L12.9553 14.2773C12.9389 14.171 12.8598 14.081 12.7562 14.0537C12.5025 13.9882 12.2516 13.8819 12.0089 13.7428C11.9162 13.6882 11.7989 13.6964 11.7116 13.7591L11.2862 14.0728C11.0843 13.9173 10.8989 13.7428 10.7325 13.5491C10.6943 13.5028 10.6534 13.4537 10.6098 13.3991L10.9262 12.971C10.9916 12.8837 10.9971 12.7664 10.9425 12.671C10.8743 12.5537 10.8253 12.461 10.7898 12.3737C10.7162 12.21 10.6698 12.071 10.6398 11.9373C10.6153 11.8282 10.5253 11.7437 10.4162 11.7273L9.88435 11.6455C9.86526 11.4901 9.85435 11.3291 9.85435 11.1655C9.85435 11.0019 9.86526 10.841 9.88435 10.6855L10.4107 10.6064C10.5198 10.59 10.6071 10.511 10.6343 10.4046C10.7025 10.1373 10.8034 9.88914 10.9371 9.66823C10.9943 9.57278 10.9889 9.4555 10.9234 9.3655L10.6071 8.93732C10.8034 8.68096 11.0298 8.45187 11.2862 8.2555L11.7171 8.56914C11.8043 8.63187 11.9189 8.64005 12.0116 8.5855C12.2571 8.44641 12.508 8.34005 12.7589 8.2746C12.8625 8.24732 12.9416 8.16005 12.958 8.05369L13.0371 7.53278C13.3507 7.48914 13.678 7.48914 13.9998 7.53278L14.0789 8.05369C14.0953 8.16005 14.1743 8.24732 14.278 8.27732C14.5343 8.3455 14.7853 8.44914 15.0253 8.58823C15.118 8.64278 15.2353 8.63459 15.3225 8.57187L15.7507 8.25823C16.0098 8.45732 16.2362 8.68369 16.4271 8.93732L16.1107 9.36823C16.0453 9.45823 16.0398 9.5755 16.0971 9.67096C16.2307 9.88914 16.3343 10.1373 16.4053 10.41C16.4325 10.5164 16.5198 10.5928 16.6289 10.6091L17.1498 10.6882C17.1716 10.8491 17.1798 11.01 17.1798 11.1682C17.1825 11.321 17.1716 11.4791 17.1498 11.6428Z" />
<path id="Vector_2" d="M13.5158 9.03271C12.3404 9.03271 11.3858 9.98726 11.3858 11.1627C11.3858 12.3382 12.3431 13.2927 13.5158 13.2927C14.6886 13.2927 15.6458 12.3354 15.6458 11.1627C15.6458 9.98726 14.6913 9.03271 13.5158 9.03271ZM13.5158 12.7473C12.6404 12.7473 11.9313 12.0354 11.9313 11.1627C11.9313 10.29 12.6431 9.57817 13.5158 9.57817C14.3886 9.57817 15.1004 10.2873 15.1004 11.1627C15.1004 12.0354 14.3886 12.7473 13.5158 12.7473ZM3.10311 2.7518L2.49493 3.35999L2.24947 3.11453C2.14311 3.00817 1.97129 3.00817 1.86493 3.11453C1.75857 3.22089 1.75857 3.39271 1.86493 3.49908L2.30129 3.93544C2.35584 3.98999 2.42402 4.01453 2.49493 4.01453C2.56584 4.01453 2.63402 3.98726 2.68857 3.93544L3.49038 3.13362C3.59675 3.02726 3.59675 2.85544 3.49038 2.74908C3.38402 2.64271 3.20947 2.64544 3.10311 2.7518ZM4.45311 3.88908H12.084C12.234 3.88908 12.3567 3.76635 12.3567 3.61635C12.3567 3.46635 12.234 3.34362 12.084 3.34362H4.45311C4.30311 3.34362 4.18038 3.46635 4.18038 3.61635C4.18038 3.76635 4.30311 3.88908 4.45311 3.88908ZM3.10311 5.00999L2.49493 5.61817L2.24947 5.37271C2.14311 5.26635 1.97129 5.26635 1.86493 5.37271C1.75857 5.47908 1.75857 5.65089 1.86493 5.75726L2.30129 6.19362C2.35311 6.24544 2.42129 6.27271 2.49493 6.27271C2.56857 6.27271 2.63675 6.24271 2.68857 6.19362L3.49038 5.3918C3.59675 5.28544 3.59675 5.11362 3.49038 5.00726C3.38402 4.90362 3.20947 4.90362 3.10311 5.00999ZM4.45311 6.14726H12.084C12.234 6.14726 12.3567 6.02453 12.3567 5.87453C12.3567 5.72453 12.234 5.6018 12.084 5.6018H4.45311C4.30311 5.6018 4.18038 5.72453 4.18038 5.87453C4.18038 6.02453 4.30311 6.14726 4.45311 6.14726ZM3.10311 7.26817L2.49493 7.87635L2.24947 7.63089C2.14311 7.52453 1.97129 7.52453 1.86493 7.63089C1.75857 7.73726 1.75857 7.90908 1.86493 8.01544L2.30129 8.4518C2.35584 8.50635 2.42402 8.53089 2.49493 8.53089C2.56584 8.53089 2.63402 8.50908 2.68857 8.45453L3.49038 7.65271C3.59675 7.54635 3.59675 7.37453 3.49038 7.26817C3.38402 7.1618 3.20947 7.1618 3.10311 7.26817ZM8.8222 7.85998H4.45311C4.30311 7.85998 4.18038 7.98271 4.18038 8.13271C4.18038 8.28271 4.30311 8.40544 4.45311 8.40544H8.8222C8.9722 8.40544 9.09493 8.28271 9.09493 8.13271C9.09493 7.98271 8.9722 7.85998 8.8222 7.85998ZM3.10311 9.52635L2.49493 10.1345L2.24947 9.88908C2.14311 9.78271 1.97129 9.78271 1.86493 9.88908C1.75857 9.99544 1.75857 10.1673 1.86493 10.2736L2.30129 10.71C2.35311 10.7618 2.42129 10.7891 2.49493 10.7891C2.56857 10.7891 2.63675 10.7591 2.68857 10.71L3.49038 9.90817C3.59675 9.8018 3.59675 9.62998 3.49038 9.52362C3.38402 9.41998 3.20947 9.41999 3.10311 9.52635ZM4.45311 10.6636H7.73129C7.88129 10.6636 8.00402 10.5409 8.00402 10.3909C8.00402 10.2409 7.88129 10.1182 7.73129 10.1182H4.45311C4.30311 10.1182 4.18038 10.2409 4.18038 10.3909C4.18038 10.5409 4.30311 10.6636 4.45311 10.6636ZM3.10311 11.7845L2.49493 12.3927L2.24947 12.1473C2.14311 12.0409 1.97129 12.0409 1.86493 12.1473C1.75857 12.2536 1.75857 12.4254 1.86493 12.5318L2.30129 12.9682C2.35584 13.0227 2.42402 13.0473 2.49493 13.0473C2.56584 13.0473 2.63402 13.02 2.68857 12.9682L3.49038 12.1663C3.59675 12.06 3.59675 11.8882 3.49038 11.7818C3.38402 11.6754 3.20947 11.6782 3.10311 11.7845ZM4.45311 12.9218H7.73129C7.88129 12.9218 8.00402 12.7991 8.00402 12.6491C8.00402 12.4991 7.88129 12.3763 7.73129 12.3763H4.45311C4.30311 12.3763 4.18038 12.4991 4.18038 12.6491C4.18038 12.7991 4.30311 12.9218 4.45311 12.9218ZM3.10311 14.0427L2.49493 14.6509L2.24947 14.4054C2.14311 14.2991 1.97129 14.2991 1.86493 14.4054C1.75857 14.5118 1.75857 14.6836 1.86493 14.79L2.30129 15.2263C2.35584 15.2809 2.42402 15.3054 2.49493 15.3054C2.56584 15.3054 2.63402 15.2782 2.68857 15.2263L3.49038 14.4245C3.59675 14.3182 3.59675 14.1463 3.49038 14.04C3.38402 13.9336 3.20947 13.9363 3.10311 14.0427ZM8.8222 14.6345H4.45311C4.30311 14.6345 4.18038 14.7573 4.18038 14.9073C4.18038 15.0573 4.30311 15.18 4.45311 15.18H8.8222C8.9722 15.18 9.09493 15.0573 9.09493 14.9073C9.09493 14.7573 8.9722 14.6345 8.8222 14.6345Z" />
</g>
<defs>
<clipPath id="clip0_8431_2108">
<rect width="18" height="18" fill="white"/>
</clipPath>
</defs>
</svg>
