<svg width="18" height="18" viewBox="0 0 18 18" fill="none" xmlns="http://www.w3.org/2000/svg">
<g id="cloud">
<path id="Vector" d="M13.1633 8.52197H10.8008C10.6039 8.52197 10.4633 8.35322 10.4633 8.18447C10.4633 8.01572 10.632 7.84697 10.8008 7.84697H13.4727C13.9789 7.81885 14.457 7.59385 14.7383 7.17197C15.0477 6.7501 15.132 6.24385 14.9914 5.79385C14.7945 5.0626 14.1477 4.58447 13.3883 4.58447H12.4883V4.13447C12.5727 3.29072 12.432 2.61572 12.0664 2.08135C11.6727 1.49072 11.1102 1.09697 10.3789 0.928223C10.2102 0.843848 10.0414 0.843848 9.84453 0.843848C9.11328 0.843848 8.12891 1.15322 7.53828 2.05322C7.51016 2.08135 7.48203 2.1376 7.45391 2.16572L7.22891 2.55947L6.83516 2.33447C6.58203 2.19385 6.30078 2.1376 6.01953 2.1376C5.09141 2.1376 4.30391 2.89697 4.30391 3.8251V4.10635L4.02266 4.21885C3.93828 4.30322 3.79766 4.3876 3.65703 4.5001C3.40391 4.69697 3.20703 4.9501 3.09453 5.25947C2.89766 5.7376 2.92578 6.3001 3.17891 6.77822C3.51641 7.4251 4.02266 7.7626 4.72578 7.79072H6.91953C7.11641 7.79072 7.25703 7.95947 7.25703 8.12822C7.25703 8.3251 7.08828 8.46572 6.91953 8.46572H4.69766C3.74141 8.38135 3.01016 7.93135 2.56016 7.05947C2.22266 6.4126 2.16641 5.65322 2.44766 4.97822C2.61641 4.55635 2.89766 4.19072 3.23516 3.90947C3.37578 3.79697 3.51641 3.7126 3.65703 3.62822C3.74141 2.39072 4.81016 1.40635 6.07578 1.40635C6.41328 1.40635 6.72266 1.4626 7.03203 1.60322C7.79141 0.478223 9.00078 0.0844727 9.90078 0.0844727C10.1539 0.0844727 10.3789 0.112598 10.5758 0.168848C11.4758 0.365723 12.1789 0.843848 12.6852 1.60322C13.107 2.22197 13.2758 2.9251 13.2477 3.79697H13.4445C14.5133 3.79697 15.4133 4.47197 15.7227 5.5126C15.9195 6.1876 15.7789 6.91885 15.357 7.50947C14.9352 8.1001 14.2602 8.4376 13.557 8.46572C13.3883 8.52197 13.2758 8.52197 13.1633 8.52197ZM10.5195 14.147C9.90078 14.147 9.53516 14.5126 9.53516 15.1595V16.4251H10.2102V15.1595C10.2102 14.9063 10.2945 14.822 10.5477 14.822H11.7289V14.147H10.5195Z" />
<path id="Vector_2" d="M13.191 12.2625V10.5187C13.191 9.75933 12.6566 9.22495 11.8973 9.22495H9.84414C9.56289 9.22495 9.30977 8.99995 9.30977 8.69058V4.80933L10.2098 5.65308C10.266 5.70933 10.3504 5.73745 10.4348 5.73745C10.5191 5.73745 10.6316 5.70933 10.6879 5.62495C10.8285 5.48433 10.8004 5.25933 10.6598 5.14683L9.22539 3.7687C9.14102 3.71245 9.05664 3.68433 8.97227 3.68433H8.94414C8.80352 3.68433 8.66289 3.7687 8.63477 3.90933L7.36914 5.2312C7.22852 5.37183 7.25664 5.59683 7.39727 5.70933C7.45352 5.76558 7.53789 5.7937 7.62227 5.7937C7.70664 5.7937 7.81914 5.76558 7.87539 5.6812L8.60664 4.92183V8.66245C8.60664 9.33745 9.14102 9.87183 9.81602 9.87183H11.8691C12.2629 9.87183 12.4879 10.0968 12.4879 10.4906V15.1312C12.4879 15.1875 12.4598 15.2156 12.4316 15.2437C11.8129 15.8343 11.2223 16.425 10.6035 17.0437C10.5754 17.1281 10.491 17.1562 10.4066 17.1562H6.10352C5.73789 17.1562 5.51289 16.9312 5.51289 16.5656V10.4906C5.51289 10.2937 5.56914 10.1531 5.68164 10.0406C5.79414 9.92808 5.93477 9.87183 6.13164 9.87183H7.53789C7.73477 9.87183 7.87539 9.70308 7.87539 9.53433C7.87539 9.33745 7.70664 9.19683 7.53789 9.19683H6.13164C5.76602 9.19683 5.42852 9.30933 5.20352 9.56245C4.97852 9.78745 4.83789 10.125 4.83789 10.4906V16.5656C4.83789 17.2968 5.37227 17.8593 6.10352 17.8593H10.4066C10.6879 17.8593 10.941 17.7468 11.1379 17.55C11.7285 16.9593 12.3473 16.3687 12.966 15.75C13.1348 15.5812 13.2191 15.3562 13.2191 15.1312C13.191 13.8375 13.191 13.4718 13.191 12.2625Z" />
</g>
</svg>
