<svg width="16" height="17" viewBox="0 0 16 17" fill="none" xmlns="http://www.w3.org/2000/svg">
<g id="Group 1347">
<path id="Vector" fill-rule="evenodd" clip-rule="evenodd" d="M3.25898 9.27625C3.82214 8.9511 3.82307 7.89841 3.26106 6.92502C2.69906 5.95161 1.78693 5.42611 1.22377 5.75127C0.660604 6.07642 0.659668 7.12909 1.22168 8.1025C1.78368 9.07589 2.69582 9.6014 3.25898 9.27625ZM3.26235 11.3605C3.82435 12.3339 3.82342 13.3866 3.26026 13.7118C2.69708 14.0369 1.78496 13.5114 1.22295 12.538C0.660946 11.5646 0.661882 10.5119 1.22504 10.1868C1.78821 9.86162 2.70034 10.3871 3.26235 11.3605ZM7.10012 13.5793C7.66213 14.5527 7.66119 15.6053 7.09803 15.9306C6.53487 16.2557 5.62273 15.7302 5.06072 14.7568C4.49873 13.7834 4.49967 12.7307 5.06283 12.4056C5.62599 12.0804 6.53811 12.6059 7.10012 13.5793ZM7.09887 9.14387C7.66087 10.1173 7.65994 11.1699 7.09678 11.4951C6.53362 11.8202 5.62149 11.2947 5.05948 10.3213C4.49748 9.34795 4.49841 8.29527 5.06157 7.97012C5.62473 7.64497 6.53687 8.17047 7.09887 9.14387Z" />
<path id="Vector_2" fill-rule="evenodd" clip-rule="evenodd" d="M14.7758 8.10518C15.3377 7.13179 15.3369 6.0791 14.7737 5.75395C14.2105 5.4288 13.2984 5.95431 12.7364 6.9277C12.1744 7.90111 12.1753 8.95378 12.7385 9.27893C13.3016 9.60408 14.2138 9.07858 14.7758 8.10518ZM14.7759 10.1884C15.339 10.5136 15.34 11.5662 14.778 12.5396C14.216 13.513 13.3038 14.0385 12.7407 13.7134C12.1775 13.3882 12.1766 12.3356 12.7386 11.3622C13.3006 10.3888 14.2127 9.86325 14.7759 10.1884ZM10.9389 12.4036C11.5021 12.7287 11.503 13.7814 10.941 14.7548C10.379 15.7281 9.46683 16.2537 8.90367 15.9286C8.34051 15.6034 8.33958 14.5507 8.90158 13.5773C9.46359 12.6039 10.3757 12.0784 10.9389 12.4036ZM10.9367 7.96908C11.4999 8.29423 11.5008 9.34692 10.9388 10.3203C10.3768 11.2937 9.46467 11.8192 8.9015 11.4941C8.33834 11.1689 8.3374 10.1162 8.89941 9.14283C9.46142 8.16944 10.3735 7.64393 10.9367 7.96908Z" />
<path id="Vector_3" fill-rule="evenodd" clip-rule="evenodd" d="M10.0343 1.97753C10.0343 2.62783 9.12316 3.15501 7.99914 3.15501C6.87513 3.15501 5.96394 2.62783 5.96394 1.97753C5.96394 1.32722 6.87513 0.800049 7.99914 0.800049C9.12316 0.800049 10.0343 1.32722 10.0343 1.97753ZM6.19737 4.19041C6.19737 4.84071 5.28618 5.36789 4.16216 5.36789C3.03814 5.36789 2.12695 4.84071 2.12695 4.19041C2.12695 3.54011 3.03814 3.01293 4.16216 3.01293C5.28618 3.01293 6.19737 3.54011 6.19737 4.19041ZM11.8411 5.36789C12.9652 5.36789 13.8763 4.84071 13.8763 4.19041C13.8763 3.54011 12.9652 3.01293 11.8411 3.01293C10.7171 3.01293 9.80593 3.54011 9.80593 4.19041C9.80593 4.84071 10.7171 5.36789 11.8411 5.36789ZM10.0343 6.40827C10.0343 7.05857 9.12316 7.58573 7.99914 7.58573C6.87513 7.58573 5.96394 7.05857 5.96394 6.40827C5.96394 5.75797 6.87513 5.23079 7.99914 5.23079C9.12316 5.23079 10.0343 5.75797 10.0343 6.40827Z" />
</g>
</svg>
