<svg width="18" height="18" viewBox="0 0 18 18" fill="none" xmlns="http://www.w3.org/2000/svg">
<g id="Resource Catalog">
<path id="Vector" d="M3.08585 12.0286H2.74293C1.2429 12.0286 0 10.8284 0 9.3236V2.705C0 1.2046 1.2429 0 2.74713 0H9.4199C10.9241 0 12.167 1.2046 12.167 2.705V2.945C14.0914 2.945 15.2357 3.9696 15.2357 5.9714C16.7571 5.9714 18 7.1546 18 8.6764V15.2736C18 16.7782 16.7785 18 15.2743 18H8.53711C7.05428 18 5.83277 16.7782 5.83277 15.2736V14.952C4.26856 14.8106 3.08565 13.9274 3.08565 12.2642C3.08585 12.2644 3.08585 12.0286 3.08585 12.0286ZM14.2113 5.9758V5.6542C14.2113 4.7112 13.4313 3.9696 12.5055 3.9696H5.81138C4.86861 3.9696 4.0886 4.7112 4.0886 5.6542V12.2686C4.0886 13.3532 4.83002 13.8332 5.83297 13.9318V8.6806C5.83297 7.1974 7.05448 5.9756 8.53731 5.9756H14.2113V5.9758ZM15.2743 6.9788H8.53711C7.61574 6.9788 6.85292 7.7418 6.85292 8.685V15.2822C6.85292 16.2252 7.61574 16.9884 8.53711 16.9884H15.2699C15.4939 16.9885 15.7158 16.9445 15.9228 16.8588C16.1298 16.7731 16.3179 16.6474 16.4763 16.489C16.6348 16.3305 16.7604 16.1424 16.8461 15.9353C16.9317 15.7282 16.9758 15.5063 16.9757 15.2822V8.6806C16.9762 8.45698 16.9325 8.23545 16.8472 8.02876C16.7618 7.82206 16.6365 7.63425 16.4784 7.47613C16.3204 7.318 16.1326 7.19267 15.9259 7.10732C15.7193 7.02198 15.4978 6.9783 15.2743 6.9788ZM11.1429 2.9492V2.7092C11.1429 1.7662 10.3629 1.0246 9.4201 1.0246H2.74713C1.80436 1.0246 1.02435 1.7662 1.02435 2.7092V9.3236C1.02435 10.2666 1.80436 11.0082 2.74713 11.0082H3.09004V5.6542C3.09004 4.1496 4.33294 2.9492 5.81578 2.9492H11.1429Z" />
</g>
</svg>
