<svg width="18" height="18" viewBox="0 0 18 18" fill="none" xmlns="http://www.w3.org/2000/svg">
<g id="self service">
<path id="Vector" d="M15.8275 1.125H2.82385C2.2462 1.125 1.77631 1.57264 1.77631 2.12294V9.57584C1.39479 9.72506 1.125 10.0819 1.125 10.4985V13.7737C1.125 13.8126 1.13216 13.8516 1.14648 13.8883L1.64536 15.1838V16.5424C1.64536 16.7262 1.80154 16.875 1.99454 16.875C2.18755 16.875 2.34373 16.7262 2.34373 16.5424V15.1247C2.34373 15.0857 2.33656 15.0467 2.32224 15.01L1.82336 13.7145V10.4985C1.82336 10.315 1.97988 10.1659 2.17254 10.1659C2.36521 10.1659 2.52173 10.315 2.52173 10.4985V11.974C2.52173 12.1579 2.6779 12.3066 2.87091 12.3066C3.06391 12.3066 3.22009 12.1579 3.22009 11.974V10.4985V9.76112C3.22009 9.57758 3.37695 9.42815 3.56961 9.42815C3.76228 9.42815 3.91879 9.57758 3.91879 9.76112V11.8879C3.91879 12.0718 4.07497 12.2206 4.26798 12.2206C4.46098 12.2206 4.61716 12.0718 4.61716 11.8879V9.76112V9.30341C4.61716 9.11987 4.77367 8.97076 4.96634 8.97076C5.159 8.97076 5.31552 9.11987 5.31552 9.30341V11.5738V11.8879C5.31552 12.0718 5.4717 12.2206 5.6647 12.2206C5.85771 12.2206 6.01388 12.0718 6.01388 11.8879V11.5738V9.30341V6.81793C6.01397 6.81508 6.01559 6.81273 6.01559 6.80987C6.01559 6.807 6.01397 6.80465 6.01388 6.80181V6.3645C6.01388 6.18096 6.17074 6.03153 6.36341 6.03153C6.55607 6.03153 6.71259 6.18096 6.71259 6.3645V9.83338V9.83399V11.3665C6.71259 11.5504 6.86876 11.6992 7.06177 11.6992C7.25477 11.6992 7.41095 11.5504 7.41095 11.3665V10.3342L8.09874 10.61C8.29141 10.6873 8.40462 10.8789 8.37359 11.0761L8.2007 12.1793C8.17683 12.333 8.11647 12.4827 8.02679 12.6127L6.84728 14.3188C6.80977 14.373 6.78965 14.4367 6.78965 14.5017V16.5424C6.78965 16.7262 6.94583 16.875 7.13883 16.875C7.33184 16.875 7.48802 16.7262 7.48802 16.5424V14.6014L8.6099 12.9788C8.75516 12.7689 8.85269 12.5262 8.89156 12.2774L9.06445 11.1745C9.11707 10.8388 9.0017 10.5117 8.77364 10.2728H15.8275C16.4051 10.2728 16.875 9.82512 16.875 9.27482V2.12294C16.875 1.57264 16.4051 1.125 15.8275 1.125ZM5.31552 8.36677C5.20576 8.32949 5.08937 8.30547 4.96634 8.30547C4.55326 8.30547 4.19869 8.53632 4.02823 8.86799C3.88913 8.8028 3.73483 8.76286 3.56961 8.76286C3.55337 8.76286 3.53826 8.76674 3.52221 8.76743V2.86489H15.1291V8.53319H7.41095V7.14251H8.27811C8.47111 7.14251 8.62729 6.99373 8.62729 6.80987V4.64442C8.62729 4.46055 8.47111 4.31177 8.27811 4.31177H4.53839C4.34538 4.31177 4.1892 4.46055 4.1892 4.64442V6.80987C4.1892 6.99373 4.34538 7.14251 4.53839 7.14251H5.31552V8.36677ZM6.36306 5.36623C5.78541 5.36623 5.31552 5.8142 5.31552 6.3645V6.47722H4.88757V4.97706H7.92893V6.47722H7.41095V6.3645C7.41095 5.8142 6.94071 5.36623 6.36306 5.36623ZM16.1766 9.27482C16.1766 9.45836 16.0201 9.60747 15.8275 9.60747H7.41095V9.19848H15.4783C15.6713 9.19848 15.8275 9.0497 15.8275 8.86584V2.53225C15.8275 2.34838 15.6713 2.1996 15.4783 2.1996H3.17303C2.98003 2.1996 2.82385 2.34838 2.82385 2.53225V9.06164C2.68274 9.19816 2.58262 9.37283 2.54223 9.56796C2.5203 9.56002 2.49728 9.5545 2.47467 9.54794V2.12294C2.47467 1.9394 2.63119 1.79029 2.82385 1.79029H15.8275C16.0201 1.79029 16.1766 1.9394 16.1766 2.12294V9.27482Z" />
<path id="Vector_2" d="M11.4181 8.08389C12.4519 8.08389 13.2932 7.24261 13.2932 6.2088C13.2932 5.17499 12.4519 4.33398 11.4181 4.33398C10.3842 4.33398 9.54297 5.17499 9.54297 6.2088C9.54297 7.24261 10.3842 8.08389 11.4181 8.08389ZM11.4181 4.89648C12.1418 4.89648 12.7307 5.48508 12.7307 6.2088C12.7307 6.93253 12.1418 7.52139 11.4181 7.52139C10.6943 7.52139 10.1055 6.93253 10.1055 6.2088C10.1055 5.48508 10.6943 4.89648 11.4181 4.89648Z" />
<path id="Vector_3" d="M11.0166 7.0466C11.0655 7.11197 11.1405 7.15317 11.2218 7.15894C11.2286 7.15948 11.2355 7.15976 11.2421 7.15976C11.3165 7.15976 11.3882 7.13037 11.4412 7.07709L12.3435 6.17319C12.453 6.06332 12.453 5.88535 12.3429 5.77548C12.2336 5.66617 12.0551 5.66562 11.9452 5.77603L11.2731 6.44949L10.9872 6.0658C10.8941 5.9411 10.7183 5.91528 10.5936 6.00839C10.4692 6.10123 10.4434 6.27728 10.5362 6.40198L11.0166 7.0466Z" />
</g>
</svg>
