<svg width="483" height="660" viewBox="0 0 483 660" fill="none" xmlns="http://www.w3.org/2000/svg">
<path d="M3.5 2C3.5 1.17157 2.82843 0.5 2 0.5C1.17157 0.5 0.5 1.17157 0.5 2H3.5ZM230.159 438.993L230.192 437.494L230.176 437.493H230.159V438.993ZM467 652C467 656.418 470.582 660 475 660C479.418 660 483 656.418 483 652C483 647.582 479.418 644 475 644C470.582 644 467 647.582 467 652ZM0.5 2V172.735H3.5V2H0.5ZM230.125 440.493L357.656 443.352L357.724 440.353L230.192 437.494L230.125 440.493ZM473.5 561.823V652H476.5V561.823H473.5ZM0.5 172.735V318.993H3.5V172.735H0.5ZM122 440.493H230.159V437.493H122V440.493ZM0.5 318.993C0.5 386.096 54.8974 440.493 122 440.493V437.493C56.5543 437.493 3.5 384.439 3.5 318.993H0.5ZM357.656 443.352C422.051 444.796 473.5 497.412 473.5 561.823H476.5C476.5 495.781 423.748 441.834 357.724 440.353L357.656 443.352Z" fill="url(#paint0_linear_7790_2715)"/>
<defs>
<linearGradient id="paint0_linear_7790_2715" x1="147.237" y1="95.9306" x2="143.7" y2="643.753" gradientUnits="userSpaceOnUse">
<stop/>
<stop offset="0.056549"/>
<stop offset="0.0708695" stop-color="#C7C7C7" stop-opacity="0"/>
<stop offset="0.335139" stop-color="#03A587"/>
<stop offset="0.807023" stop-color="#03A587"/>
</linearGradient>
</defs>
</svg>
