<svg width="30" height="30" viewBox="0 0 30 30" fill="none" xmlns="http://www.w3.org/2000/svg">
<g id="Cloud Infrastructure">
<path id="Vector" d="M24.3402 20.889H23.0872V19.646C23.0864 19.0002 22.8295 18.381 22.3728 17.9244C21.9162 17.4677 21.297 17.2108 20.6512 17.21H16.0842V15.498H20.4702C21.4736 15.4991 22.4365 15.102 23.1474 14.3938C23.8583 13.6857 24.2593 12.7244 24.2622 11.721C24.2622 10.26 23.4062 8.94702 22.1222 8.31202C22.2289 7.98316 22.2839 7.63974 22.2852 7.29402C22.2852 5.40502 20.7352 3.87102 18.8322 3.87102C18.0642 3.87102 17.3422 4.12102 16.7662 4.56402C16.4093 4.0777 15.9426 3.68255 15.404 3.41077C14.8655 3.13898 14.2704 2.99825 13.6672 3.00002C12.6422 3.00108 11.6595 3.40873 10.9347 4.13351C10.2099 4.8583 9.80225 5.84101 9.80119 6.86602V6.91002C8.73646 7.01276 7.74798 7.50777 7.02792 8.29879C6.30787 9.08982 5.90769 10.1203 5.90519 11.19C5.90427 11.7548 6.01461 12.3143 6.2299 12.8365C6.4452 13.3586 6.76123 13.8333 7.15997 14.2333C7.5587 14.6334 8.03233 14.951 8.5538 15.1679C9.07527 15.3849 9.63437 15.4971 10.1992 15.498H14.0842V17.21H9.51519C8.86954 17.2111 8.25065 17.4681 7.7942 17.9247C7.33775 18.3814 7.08098 19.0004 7.08019 19.646V20.889H5.66019C5.08619 20.889 4.61719 21.358 4.61719 21.932V25.957C4.61719 26.531 5.08719 27 5.66019 27H10.1652C10.7392 27 11.2082 26.53 11.2082 25.957V21.932C11.2082 21.358 10.7382 20.889 10.1652 20.889H9.08019V19.646C9.08019 19.406 9.27519 19.21 9.51519 19.21H20.6512C20.8912 19.21 21.0872 19.406 21.0872 19.646V20.889H19.8352C19.2612 20.889 18.7922 21.358 18.7922 21.932V25.957C18.7922 26.531 19.2622 27 19.8352 27H24.3402C24.9142 27 25.3832 26.53 25.3832 25.957V21.932C25.3832 21.358 24.9132 20.889 24.3402 20.889Z" fill="white"/>
</g>
</svg>
